PS_ngait_og_ss1_kinetics.mot
version=1
nRows=21
nColumns=28
inDegrees=yes
endheader
time	1_ground_force_vx	1_ground_force_vy	1_ground_force_vz	1_ground_force_px	1_ground_force_py	1_ground_force_pz	2_ground_force_vx	2_ground_force_vy	2_ground_force_vz	2_ground_force_px	2_ground_force_py	2_ground_force_pz	3_ground_force_vx	3_ground_force_vy	3_ground_force_vz	3_ground_force_px	3_ground_force_py	3_ground_force_pz	1_ground_torque_x	1_ground_torque_y	1_ground_torque_z	2_ground_torque_x	2_ground_torque_y	2_ground_torque_z	3_ground_torque_x	3_ground_torque_y	3_ground_torque_z
  0.00000000	 16.75067435	 49.56590843	  5.02424358	  0.25189651	 -0.00600000	  0.09655508	 94.82912393	838.88697961	-51.59154943	 -0.14779991	 -0.00600000	  0.25912207	  0.00000000	  0.00000000	  0.00000000	  0.90000000	 -0.00600000	  0.20000000	  0.00000000	  0.78787148	  0.00000000	  0.00000000	 -2.18970136	  0.00000000	  0.00000000	  0.00000000	  0.00000000
  0.00083333	 17.52623250	 53.06644468	  4.47621107	  0.24877779	 -0.00600000	  0.10169671	 95.31070246	839.40379695	-51.10047084	 -0.14792849	 -0.00600000	  0.25912611	  0.00000000	  0.00000000	  0.00000000	  0.90000000	 -0.00600000	  0.20000000	  0.00000000	  0.72097370	  0.00000000	  0.00000000	 -2.13230237	  0.00000000	  0.00000000	  0.00000000	  0.00000000
  0.00166667	 18.31713409	 56.70958843	  3.89038814	  0.24622118	 -0.00600000	  0.10615171	 95.81625026	839.84472480	-50.59146314	 -0.14802218	 -0.00600000	  0.25913018	  0.00000000	  0.00000000	  0.00000000	  0.90000000	 -0.00600000	  0.20000000	  0.00000000	  0.66399181	  0.00000000	  0.00000000	 -2.07322457	  0.00000000	  0.00000000	  0.00000000	  0.00000000
  0.00250000	 19.10838995	 60.47247063	  3.26377650	  0.24423201	 -0.00600000	  0.10985998	 96.34329494	840.17088749	-50.07424035	 -0.14806974	 -0.00600000	  0.25913497	  0.00000000	  0.00000000	  0.00000000	  0.90000000	 -0.00600000	  0.20000000	  0.00000000	  0.61745236	  0.00000000	  0.00000000	 -2.01411460	  0.00000000	  0.00000000	  0.00000000	  0.00000000
  0.00333333	 19.88364307	 64.33377579	  2.59452714	  0.24278128	 -0.00600000	  0.11284947	 96.89298428	840.35835128	-49.55581422	 -0.14806542	 -0.00600000	  0.25914055	  0.00000000	  0.00000000	  0.00000000	  0.90000000	 -0.00600000	  0.20000000	  0.00000000	  0.58102432	  0.00000000	  0.00000000	 -1.95641354	  0.00000000	  0.00000000	  0.00000000	  0.00000000
  0.00416667	 20.62697851	 68.27832389	  1.88018332	  0.24181196	 -0.00600000	  0.11523658	 97.46591788	840.39571860	-49.03992734	 -0.14800799	 -0.00600000	  0.25914609	  0.00000000	  0.00000000	  0.00000000	  0.90000000	 -0.00600000	  0.20000000	  0.00000000	  0.55319021	  0.00000000	  0.00000000	 -1.90083369	  0.00000000	  0.00000000	  0.00000000	  0.00000000
  0.00500000	 21.32516017	 72.29969372	  1.11662708	  0.24126451	 -0.00600000	  0.11716798	 98.06078181	840.28190644	-48.52724584	 -0.14789966	 -0.00600000	  0.25915009	  0.00000000	  0.00000000	  0.00000000	  0.90000000	 -0.00600000	  0.20000000	  0.00000000	  0.53215130	  0.00000000	  0.00000000	 -1.84733751	  0.00000000	  0.00000000	  0.00000000	  0.00000000
  0.00583333	 21.96809193	 76.39818201	  0.29855196	  0.24108850	 -0.00600000	  0.11876404	 98.67478610	840.02402467	-48.01686203	 -0.14774548	 -0.00600000	  0.25915058	  0.00000000	  0.00000000	  0.00000000	  0.90000000	 -0.00600000	  0.20000000	  0.00000000	  0.51682649	  0.00000000	  0.00000000	 -1.79558515	  0.00000000	  0.00000000	  0.00000000	  0.00000000
  0.00666667	 22.54748325	 80.57337211	 -0.57796252	  0.24123187	 -0.00600000	  0.12010879	 99.30372005	839.63386065	-47.50797658	 -0.14755320	 -0.00600000	  0.25914525	  0.00000000	  0.00000000	  0.00000000	  0.90000000	 -0.00600000	  0.20000000	  0.00000000	  0.50675452	  0.00000000	  0.00000000	 -1.74521870	  0.00000000	  0.00000000	  0.00000000	  0.00000000
  0.00750000	 23.05506767	 84.81720158	 -1.51157451	  0.24163445	 -0.00600000	  0.12125659	 99.94219731	839.12357792	-47.00038503	 -0.14733190	 -0.00600000	  0.25913183	  0.00000000	  0.00000000	  0.00000000	  0.90000000	 -0.00600000	  0.20000000	  0.00000000	  0.50171315	  0.00000000	  0.00000000	 -1.69572017	  0.00000000	  0.00000000	  0.00000000	  0.00000000
  0.00833333	 23.48090450	 89.11304361	 -2.49368386	  0.24223659	 -0.00600000	  0.12223146	100.58535462	838.50247325	-46.49452070	 -0.14708997	 -0.00600000	  0.25910914	  0.00000000	  0.00000000	  0.00000000	  0.90000000	 -0.00600000	  0.20000000	  0.00000000	  0.50178515	  0.00000000	  0.00000000	 -1.64636801	  0.00000000	  0.00000000	  0.00000000	  0.00000000
  0.00916667	 23.81248141	 93.43857950	 -3.51013779	  0.24298692	 -0.00600000	  0.12303467	101.23064347	837.77750873	-45.99192992	 -0.14683415	 -0.00600000	  0.25907766	  0.00000000	  0.00000000	  0.00000000	  0.90000000	 -0.00600000	  0.20000000	  0.00000000	  0.50748036	  0.00000000	  0.00000000	 -1.59664381	  0.00000000	  0.00000000	  0.00000000	  0.00000000
  0.01000000	 24.03596517	 97.76938527	 -4.54472503	  0.24383844	 -0.00600000	  0.12366305	101.87735151	836.95658715	-45.49561486	 -0.14657001	 -0.00600000	  0.25903909	  0.00000000	  0.00000000	  0.00000000	  0.90000000	 -0.00600000	  0.20000000	  0.00000000	  0.51951094	  0.00000000	  0.00000000	 -1.54658516	  0.00000000	  0.00000000	  0.00000000	  0.00000000
  0.01083333	 24.13926421	102.08354998	 -5.58162285	  0.24474500	 -0.00600000	  0.12412205	102.52448832	836.04941503	-45.00967527	 -0.14630233	 -0.00600000	  0.25899547	  0.00000000	  0.00000000	  0.00000000	  0.90000000	 -0.00600000	  0.20000000	  0.00000000	  0.53837594	  0.00000000	  0.00000000	 -1.49664857	  0.00000000	  0.00000000	  0.00000000	  0.00000000
  0.01166667	 24.11425472	106.36589738	 -6.60615818	  0.24566906	 -0.00600000	  0.12443014	103.16972985	835.06467538	-44.53817762	 -0.14603490	 -0.00600000	  0.25894901	  0.00000000	  0.00000000	  0.00000000	  0.90000000	 -0.00600000	  0.20000000	  0.00000000	  0.56408830	  0.00000000	  0.00000000	 -1.44730325	  0.00000000	  0.00000000	  0.00000000	  0.00000000
  0.01250000	 23.95651781	110.60887460	 -7.60474643	  0.24658908	 -0.00600000	  0.12462139	103.81011456	834.00786006	-44.08386508	 -0.14577009	 -0.00600000	  0.25890206	  0.00000000	  0.00000000	  0.00000000	  0.90000000	 -0.00600000	  0.20000000	  0.00000000	  0.59588603	  0.00000000	  0.00000000	 -1.39871243	  0.00000000	  0.00000000	  0.00000000	  0.00000000
  0.01333333	 23.66342780	114.80990585	 -8.56455639	  0.24749402	 -0.00600000	  0.12473725	104.44262171	832.88248815	-43.64776044	 -0.14550855	 -0.00600000	  0.25885682	  0.00000000	  0.00000000	  0.00000000	  0.90000000	 -0.00600000	  0.20000000	  0.00000000	  0.63205306	  0.00000000	  0.00000000	 -1.35077851	  0.00000000	  0.00000000	  0.00000000	  0.00000000
  0.01416667	 23.23292284	118.96799163	 -9.47338401	  0.24837196	 -0.00600000	  0.12480633	105.06389027	831.69281447	-43.22940319	 -0.14524959	 -0.00600000	  0.25881491	  0.00000000	  0.00000000	  0.00000000	  0.90000000	 -0.00600000	  0.20000000	  0.00000000	  0.67044849	  0.00000000	  0.00000000	 -1.30350269	  0.00000000	  0.00000000	  0.00000000	  0.00000000
  0.01500000	 22.66515692	123.08244387	-10.32040264	  0.24920740	 -0.00600000	  0.12483838	105.67027686	830.44513580	-42.82696689	 -0.14499219	 -0.00600000	  0.25877661	  0.00000000	  0.00000000	  0.00000000	  0.90000000	 -0.00600000	  0.20000000	  0.00000000	  0.70929532	  0.00000000	  0.00000000	 -1.25715232	  0.00000000	  0.00000000	  0.00000000	  0.00000000
  0.01583333	 21.96503654	127.15313693	-11.09695314	  0.24998899	 -0.00600000	  0.12483848	106.25851380	829.14642826	-42.43769573	 -0.14473589	 -0.00600000	  0.25874089	  0.00000000	  0.00000000	  0.00000000	  0.90000000	 -0.00600000	  0.20000000	  0.00000000	  0.74735500	  0.00000000	  0.00000000	 -1.21210247	  0.00000000	  0.00000000	  0.00000000	  0.00000000
  0.01666667	 21.14194799	131.17914994	-11.79603226	  0.25071503	 -0.00600000	  0.12481597	106.82660279	827.80154797	-42.05879069	 -0.14448050	 -0.00600000	  0.25870621	  0.00000000	  0.00000000	  0.00000000	  0.90000000	 -0.00600000	  0.20000000	  0.00000000	  0.78365782	  0.00000000	  0.00000000	 -1.16879968	  0.00000000	  0.00000000	  0.00000000	  0.00000000
